<svg id="Layer_1" data-name="Layer 1" xmlns="http://www.w3.org/2000/svg" viewBox="0 0 561.79 336.5"><path d="M657.45,541.23a10,10,0,0,1-8.66,5H582a48.71,48.71,0,0,1-42-24.15L492.56,440l-13-22.48h0l-6.66-11.55-.36-.62,0-.07-4.71-8.15-4.74,8.22-.36.62h0L456,417.48l-9.27,16.06-3.63,6.28L441,443.54l-5.77-10-29.43-51-5.78-10-11.1-19.22-5.77-10,5.77-10L424,272.6,444,238c0-.08.09-.15.14-.23l13.27-23a10,10,0,0,1,17.32,0l13.27,23c.05.08.1.15.14.23l20,34.65L624.07,473.41l20,34.6.42.75,13,22.47A10,10,0,0,1,657.45,541.23Z" transform="translate(-97 -209.73)"/><path d="M481.12,541.23a10,10,0,0,1-8.66,5H405.64a48.72,48.72,0,0,1-42-24.15l-36.08-62.47-5.77-10L316.23,440l-13-22.48h0l-6.66-11.55-.36-.62,0-.07-4.71-8.15-4.74,8.22-.36.62h0l-6.66,11.55-12.9,22.34L219.37,522l-.06.08a48.68,48.68,0,0,1-42,24.15H107a10,10,0,0,1-8.66-15l13-22.47.42-.75,20-34.6,0-.05L247.66,272.6l20-34.65c0-.08.09-.15.14-.23l13.27-23a10,10,0,0,1,17.32,0l13.27,23c0,.08.1.15.14.23l20,34.65,46.1,79.84,5.77,10,46.3,80.2,5.77,10,12,20.77,20,34.6.42.75,13,22.47A10,10,0,0,1,481.12,541.23Z" transform="translate(-97 -209.73)"/></svg>