<?xml version="1.0" encoding="utf-8"?>
<svg id="master-artboard" viewBox="0 0 1400 1200" version="1.1" xmlns="http://www.w3.org/2000/svg" x="0px" y="0px" style="enable-background:new 0 0 1400 1200;" width="1400px" height="1200px">


<g>
	<path class="st1" d="M1182,614.9c0-273.8-222-495.8-495.8-495.8s-495.8,222-495.8,495.8s222,350.5,495.8,350.5&#10;&#9;&#9;S1182,888.7,1182,614.9z" style="fill: rgb(39, 220, 240);"/>
	<path d="M 427.599991 225.699997 A 101.199997 101.199997 0 0 1 326.399994 326.899994 A 101.199997 101.199997 0 0 1 225.199997 225.699997 A 101.199997 101.199997 0 0 1 326.399994 124.5 A 101.199997 101.199997 0 0 1 427.599991 225.699997 Z" class="st2" style="fill: rgb(255, 215, 0);"/>
	<path class="st3" d="M300.8,323.7c8.2,2.1,16.7,3.3,25.6,3.3c55.9,0,101.2-45.3,101.2-101.2c0-8.5-1-16.7-3-24.5&#10;&#9;&#9;C359.1,229.7,313.1,302.6,300.8,323.7z" style="fill: rgb(255, 165, 34);"/>
	<path class="st4" d="M1169.3,502.7c-8.7-2.7-18-4.2-27.6-4.2c-46.1,0-84.3,33.9-91.1,78.1c-6.3-1.6-12.9-2.4-19.6-2.4&#10;&#9;&#9;c-8.1,0-15.9,1.2-23.3,3.4c-3.4-36.1-33.8-64.4-70.9-64.4c-11.8,0-22.8,2.9-32.6,7.9c-4.3-38.7-37-68.7-76.8-68.7&#10;&#9;&#9;c-33.1,0-61.4,20.8-72.4,50.1c-12.7-15-31.6-24.6-52.9-24.6c-14.6,0-28,4.5-39.2,12.2c-13.4-23.2-38.5-38.9-67.2-38.9&#10;&#9;&#9;c-42.4,0-76.9,34.1-77.5,76.4c-4.9-1.3-10-1.9-15.2-1.9c-8.9,0-17.4,1.9-25.1,5.4c-11.8-17.7-32-29.4-54.9-29.4&#10;&#9;&#9;c-36.4,0-66,29.5-66,66c0,4.6,0.5,9,1.3,13.3c-2.2-0.3-4.5-0.4-6.7-0.4c-13.7,0-26.3,5-35.9,13.2c-13.5-23.2-38.6-38.8-67.4-38.8&#10;&#9;&#9;c-22.3,0-42.4,9.4-56.6,24.4c-0.8,11.7-1.3,23.6-1.3,35.5c0,108.2,34.6,185.5,93.4,239.6c16-7.8,29.5-20.2,38.6-35.4&#10;&#9;&#9;c2,0.1,4,0.2,6,0.2c14.1,0,27.4-3.2,39.4-8.8c11.4,37.9,46.6,65.6,88.3,65.6c22.2,0,42.6-7.9,58.5-20.9c10.7,4.4,22.4,6.8,34.7,6.8&#10;&#9;&#9;c26.4,0,50.2-11.1,67-28.8c16.9,18.9,41.5,30.8,68.8,30.8c21.9,0,41.9-7.6,57.8-20.3c15.8,12.7,35.9,20.3,57.8,20.3&#10;&#9;&#9;c25.4,0,48.5-10.3,65.2-27c15.9,13.1,36.3,20.9,58.5,20.9c12.1,0,23.7-2.4,34.4-6.6c13.7,8.1,29.7,12.7,46.7,12.7&#10;&#9;&#9;c24.1,0,46-9.2,62.4-24.4c5.2,6.6,11.3,12.4,18.1,17.4c60.4-54.2,96-132.2,96-242C1182,576.3,1177.6,538.8,1169.3,502.7z" style="opacity: 0.42; fill: rgb(255, 255, 255);"/>
	<g>
		<path class="st5" d="M270.5,819.3C136.4,857-51,1017.7,357.1,1064.9c542.4,62.7,267.5-84.9,538.7-1.8&#10;&#9;&#9;&#9;c244,74.7,619.4-134.1,221-239.8C741.4,723.6,374.7,790,270.5,819.3z" style="fill: rgb(14, 180, 193);"/>
		<path class="st6" d="M1185.4,845.2c61.1,44.5,126.1,108.1-78.7,167.6c-157,45.6-188.8-83.2-420.3-15.2&#10;&#9;&#9;&#9;C450.8,1066.8,68.9,978.2,195.3,851c-107.7,61.1-171.5,175.3,161.8,213.9c542.4,62.7,267.5-84.9,538.7-1.8&#10;&#9;&#9;&#9;C1123.8,1132.8,1466.6,955.1,1185.4,845.2z" style="fill: rgb(11, 151, 155);"/>
		<path class="st7" d="M1058.2,822.3c0-4.7-1-9.3-2.8-13.9c-338.3-74.3-658.1-21.6-771.1,7.3c-0.4,2.2-0.6,4.4-0.6,6.6&#10;&#9;&#9;&#9;c0,63.5,173.4,115,387.3,115S1058.2,885.8,1058.2,822.3z" style="fill: rgb(30, 203, 226);"/>
	</g>
	<g>
		<path class="st8" d="M962.9,361c-3.3,8.2-7.3,19.6-11.5,34c-1.2,4.3-2.5,8.8-3.8,13.6c-2.6,10-5.2,21.1-7.7,33.3&#10;&#9;&#9;&#9;c-0.9,4.5-1.8,9.1-2.6,13.8c-1.9,10.6-3.6,21.8-5.1,33.8c-0.6,4.6-1.1,9.2-1.6,14c-1.2,10.9-2.1,22.3-2.9,34.3&#10;&#9;&#9;&#9;c-0.3,4.7-0.5,9.4-0.7,14.2c-0.5,11.2-0.7,22.8-0.7,34.9c0,4.8,0.1,9.6,0.2,14.5c0.2,11.6,0.7,23.6,1.5,35.8&#10;&#9;&#9;&#9;c0.3,5,0.7,10,1.1,15.1c2.7,34.2,7.6,70.7,15.5,109.5l-101.8-81.2c0,0,1.4-14.6,4.7-37.8c0.6-4.4,1.3-9.2,2-14.2&#10;&#9;&#9;&#9;c1.6-10.4,3.4-22,5.6-34.4c0.8-4.6,1.6-9.3,2.5-14.1c2-11,4.3-22.5,6.8-34.3c1-4.6,2-9.3,3.1-14c2.6-11.3,5.4-22.7,8.4-34&#10;&#9;&#9;&#9;c1.2-4.7,2.5-9.3,3.9-13.9c3.3-11.5,6.8-22.8,10.6-33.7c1.6-4.7,3.3-9.3,5-13.8c4.5-11.7,9.2-22.8,14.4-33.1&#10;&#9;&#9;&#9;c2.3-4.6,4.7-9.1,7.2-13.4c7-12.1,14.5-22.5,22.7-30.7L962.9,361z" style="fill: rgb(203, 90, 0);"/>
		<path class="st9" d="M939.4,359.1c-0.3,0.3-0.6,0.6-0.9,1l11.6,1c-3.3,8.2-7.3,19.6-11.5,34c-1.2,4.3-2.5,8.8-3.8,13.6&#10;&#9;&#9;&#9;c-2.6,10-5.2,21.1-7.7,33.3c-0.9,4.5-1.8,9.1-2.6,13.8c-1.9,10.6-3.6,21.8-5.1,33.8c-0.6,4.6-1.1,9.2-1.6,14&#10;&#9;&#9;&#9;c-1.2,10.9-2.1,22.3-2.9,34.3c-0.3,4.7-0.5,9.4-0.7,14.2c-0.5,11.2-0.7,22.8-0.7,34.9c0,4.8,0.1,9.6,0.2,14.5&#10;&#9;&#9;&#9;c0.2,11.6,0.7,23.6,1.5,35.8c0.3,5,0.7,10,1.1,15.1c2.4,30.6,6.6,63.1,13.1,97.4l15.1,12.1c-7.8-38.7-12.8-75.3-15.5-109.5&#10;&#9;&#9;&#9;c-0.4-5.1-0.8-10.1-1.1-15.1c-0.8-12.3-1.2-24.2-1.5-35.8c-0.1-4.9-0.1-9.7-0.2-14.5c0-12,0.2-23.6,0.7-34.9&#10;&#9;&#9;&#9;c0.2-4.8,0.4-9.5,0.7-14.2c0.7-11.9,1.7-23.3,2.9-34.3c0.5-4.8,1.1-9.4,1.6-14c1.5-11.9,3.3-23.2,5.1-33.8&#10;&#9;&#9;&#9;c0.8-4.7,1.7-9.3,2.6-13.8c2.4-12.2,5.1-23.3,7.7-33.3c1.3-4.8,2.5-9.3,3.8-13.6c4.2-14.4,8.3-25.8,11.5-34L939.4,359.1z" style="fill: rgb(160, 73, 13);"/>
		<path class="st10" d="M949.9,360l-67.8,23.8l-12-16.2l-3.8,19.7l-30.1,15.9l-9-28.7l-10.7,45.4L742,437.1&#10;&#9;&#9;&#9;C742,437.1,764.9,294.7,949.9,360z" style="fill: rgb(71, 154, 25);"/>
		<path class="st10" d="M949.9,360c0,0-122.9-155.4-233.7-79.3l65.2,17.2l19.6-12.7l0.4,18.5l42.7,10.9l15.8-10.1l0,17.1L949.9,360z&#10;&#9;&#9;&#9;" style="fill: rgb(71, 154, 25);"/>
		<path class="st11" d="M949.9,360c0,0,53.2-115.6-77.4-151.9l21.1,44.3l31.1,6l-22.1,8.9l6.5,27.6l16.4,3.8l-7.7,5.8L949.9,360z" style="fill: rgb(53, 124, 8);"/>
		<path class="st10" d="M949.9,359.9c0,0,83.1-144.9,173.7-54.1l-31.9,14.3l-22-16.9l0.7,16.7l-39.4,16.1l-18-9l0.4,18.2&#10;&#9;&#9;&#9;L949.9,359.9z" style="fill: rgb(71, 154, 25);"/>
		<path class="st11" d="M949.9,359.9c0,0,122.4-19.9,109.8,131.2l-39.1-43.1l2.2-18l-16-2.4l-20-19l-1.9-20.8l-14.6,3.8L949.9,359.9&#10;&#9;&#9;&#9;z" style="fill: rgb(53, 124, 8);"/>
		<g>
			<path class="st9" d="M928.9,652.2c-26.2-8.7-54-12-81.7-9.5c0.6-4.4,1.3-9.2,2-14.2c26.6-2,53.2,1,78.6,8.7&#10;&#9;&#9;&#9;&#9;C928.1,642.1,928.5,647.1,928.9,652.2z" style="fill: rgb(160, 73, 13);"/>
			<path class="st9" d="M926.3,601.3c-23.3-5.9-47.4-8.4-71.6-7.3c0.8-4.6,1.6-9.3,2.5-14.1c23.2-0.8,46.4,1.6,68.9,6.9&#10;&#9;&#9;&#9;&#9;C926.2,591.6,926.2,596.4,926.3,601.3z" style="fill: rgb(160, 73, 13);"/>
			<path class="st9" d="M927.6,537.8c-19.8-4.1-40.1-6.1-60.4-6.2c-1.1,4.7-2.1,9.4-3.1,14c21.1-0.2,42.2,1.9,62.8,6.3L927.6,537.8z&#10;&#9;&#9;&#9;&#9;" style="fill: rgb(160, 73, 13);"/>
			<path class="st9" d="M932.1,489.5c-17.3-3.3-34.9-5.2-52.6-5.8c-1.3,4.6-2.6,9.3-3.9,13.9c18.5,0.4,36.8,2.4,54.9,5.9&#10;&#9;&#9;&#9;&#9;L932.1,489.5z" style="fill: rgb(160, 73, 13);"/>
			<path class="st9" d="M939.9,441.9c-0.9,4.5-1.8,9.1-2.6,13.8c-15.6-2.9-31.3-4.8-47.1-5.7c1.6-4.7,3.3-9.3,5-13.8&#10;&#9;&#9;&#9;&#9;C910.2,437.3,925.1,439.2,939.9,441.9z" style="fill: rgb(160, 73, 13);"/>
			<path class="st9" d="M951.3,395c-1.2,4.3-2.5,8.8-3.8,13.6c-12.6-2.4-25.3-4.2-38.1-5.4c2.3-4.6,4.7-9.1,7.2-13.4&#10;&#9;&#9;&#9;&#9;C928.3,391.1,939.8,392.8,951.3,395z" style="fill: rgb(160, 73, 13);"/>
		</g>
	</g>
	<path class="st12" d="M1010.3,802c0-65.2-138.6-197.7-309.6-197.7S391.1,736.9,391.1,802s138.6,80.7,309.6,80.7&#10;&#9;&#9;S1010.3,867.2,1010.3,802z" style="fill: rgb(255, 226, 150);"/>
	<g>
		<path class="st2" d="M902.6,801.5c248.5-142.8,261.8-396.2,262.3-409.2l0.2-0.4c0,0-0.1,0-0.2,0.1c0-0.2,0-0.2,0-0.2l-0.3,0.3&#10;&#9;&#9;&#9;c-12.5,3.5-255.7,75.9-336.3,350.9l52.9,9.4L902.6,801.5z" style="fill: rgb(255, 215, 0);"/>
		<path class="st13" d="M1156.4,405.2l-266,337.7l20,42.2C910.5,785.2,1129.7,652.4,1156.4,405.2z" style="opacity: 0.7; fill: rgb(255, 165, 34);"/>
	</g>
	<g>
		<g>
			<path class="st14" d="M278.3,471.7c0,0,64.3-31.2,112.6-3.1c0,0,71.9-58.5,111.3-45.1l-21.2-72.9l-141,71L278.3,471.7z" style="fill: rgb(163, 69, 5);"/>
			<path class="st14" d="M642,333.9l-157.1,15.6l21.2,72.9c26.2-32.4,118.2-21.6,118.2-21.6c25.8-49.6,96.7-57.8,96.7-57.8&#10;&#9;&#9;&#9;&#9;L642,333.9z" style="fill: rgb(163, 69, 5);"/>
		</g>
		<path class="st3" d="M450.2,237.6l45,99.4l102.2,42v0c34.1-27.1,77.3-40,120.6-36.1l2.7,0.2C640.5,197.5,450.2,237.6,450.2,237.6z&#10;&#9;&#9;&#9;" style="fill: rgb(255, 165, 34);"/>
		<path class="st3" d="M450.1,237.7l15.2,108l-63.7,90.2l-12.3-0.8c-40.4-2.7-80.2,10.5-111,36.7l0,0&#10;&#9;&#9;&#9;C268,305.7,450.1,237.7,450.1,237.7z" style="fill: rgb(255, 165, 34);"/>
		<path class="st2" d="M554.9,235.7c-57.4-8-104.6,1.9-104.6,1.9l44.1,97.3C521.6,306.7,542.3,272.7,554.9,235.7z" style="fill: rgb(255, 215, 0);"/>
		<path class="st8" d="M588.6,713.9L588.6,713.9c-4,1.2-8.3-1.2-9.5-5.2L447.9,257.1c-1.2-4,1.2-8.3,5.2-9.5l0,0&#10;&#9;&#9;&#9;c4-1.2,8.3,1.2,9.5,5.2l131.3,451.6C595,708.5,592.6,712.7,588.6,713.9z" style="fill: rgb(203, 90, 0);"/>
		<g>
			<path class="st15" d="M499.3,409.8l1.7-0.5C501,409.3,499.9,409.7,499.3,409.8z" style="fill: rgb(14, 101, 173);"/>
		</g>
		<path class="st2" d="M450.1,237.7l15.2,108l-20.9,29.6c-20.2,12.6-42.4,22.6-66.3,29.6c-31.9,9.3-64.2,12.3-95.5,9.7&#10;&#9;&#9;&#9;c11.9-53.5,44.4-93.7,77.7-122.1C404.5,254.7,450.1,237.7,450.1,237.7z" style="fill: rgb(255, 215, 0);"/>
		<path class="st16" d="M450.1,237.7L450.1,237.7C450.1,237.7,450.1,237.7,450.1,237.7C450.1,237.7,450.1,237.7,450.1,237.7&#10;&#9;&#9;&#9;L450.1,237.7c-13.4,16.3-74.7,97.8-48.5,198.2l0,0C456,390.4,527,369.8,597.3,379l0,0C565.5,280.2,470.1,244.2,450.1,237.7z" style="fill: rgb(232, 67, 67);"/>
		<path class="st2" d="M450.1,237.7l15.2,108l-20.9,29.6c-20.2,12.6-42.4,22.6-66.3,29.6c-31.9,9.3-64.2,12.3-95.5,9.7&#10;&#9;&#9;&#9;c11.9-53.5,44.4-93.7,77.7-122.1C404.5,254.7,450.1,237.7,450.1,237.7z" style="fill: rgb(255, 215, 0);"/>
		<path class="st17" d="M532.7,284.3c-34.8-29.4-71.1-42.8-82.6-46.6l0,0c0,0,0,0,0,0c0,0,0,0,0,0l0,0&#10;&#9;&#9;&#9;c-11.7,14.2-60.1,78.4-54.5,161.4C455.1,377.3,502.6,335.8,532.7,284.3z" style="fill: rgb(255, 92, 92);"/>
	</g>
	<path d="M 608.499977 744.599976 A 88.900002 29.200001 0 0 1 519.599976 773.799976 A 88.900002 29.200001 0 0 1 430.699974 744.599976 A 88.900002 29.200001 0 0 1 519.599976 715.399975 A 88.900002 29.200001 0 0 1 608.499977 744.599976 Z" class="st18" style="fill: rgb(253, 213, 129);"/>
	<path class="st18" d="M875.5,650.6C875.5,650.6,875.5,650.6,875.5,650.6c-0.3-0.2-0.6-0.3-0.9-0.5c-2.3-1.3-4.7-2.5-7.1-3.7&#10;&#9;&#9;c-0.6-0.3-1.2-0.6-1.9-1c-1.1-0.6-2.2-1.1-3.3-1.7c-0.7-0.4-1.5-0.7-2.2-1.1c-1.1-0.5-2.2-1.1-3.3-1.6c-0.8-0.4-1.6-0.8-2.4-1.1&#10;&#9;&#9;c-1.8-0.8-3.6-1.7-5.4-2.5c-1-0.4-1.9-0.9-2.9-1.3c-1-0.4-2-0.9-3-1.3c-1-0.4-1.9-0.8-2.9-1.2c-1-0.4-2-0.8-3-1.2&#10;&#9;&#9;c-1.1-0.5-2.2-0.9-3.3-1.3c-0.9-0.4-1.7-0.7-2.6-1.1c-1.9-0.7-3.7-1.5-5.6-2.2c-0.8-0.3-1.6-0.6-2.4-0.9c-1.3-0.5-2.5-0.9-3.8-1.4&#10;&#9;&#9;c-0.8-0.3-1.7-0.6-2.5-0.9c-1.4-0.5-2.7-0.9-4.1-1.4c-0.7-0.2-1.4-0.5-2.2-0.7c-2-0.7-4.1-1.3-6.2-2c-0.5-0.1-0.9-0.3-1.4-0.4&#10;&#9;&#9;c-1.7-0.5-3.4-1-5.1-1.5c-0.7-0.2-1.4-0.4-2.1-0.6c-1.6-0.5-3.2-0.9-4.8-1.3c-0.6-0.2-1.2-0.3-1.8-0.5c-4.4-1.2-8.9-2.3-13.4-3.3&#10;&#9;&#9;c-0.4-0.1-0.9-0.2-1.3-0.3c-1.9-0.4-3.8-0.8-5.7-1.2c-0.5-0.1-1.1-0.2-1.6-0.3c-2.2-0.4-4.5-0.9-6.7-1.3c0,0-0.1,0-0.1,0&#10;&#9;&#9;c-2.4-0.4-4.8-0.8-7.2-1.2c-0.2,0-0.5-0.1-0.7-0.1c-1.5-0.2-3-0.5-4.4-0.7c-1.1-0.2-2.2-0.3-3.3-0.5c-2.2-0.3-4.4-0.6-6.5-0.8&#10;&#9;&#9;c-0.2,0-0.4,0-0.6-0.1c-2.5-0.3-5-0.5-7.6-0.8c0,0,0,0,0,0c-2.4-0.2-4.8-0.4-7.2-0.5c-0.4,0-0.8-0.1-1.3-0.1&#10;&#9;&#9;c-2.2-0.1-4.3-0.2-6.5-0.3c-0.3,0-0.6,0-0.9,0c-4.5-0.2-8.9-0.3-13.4-0.3c-69,0-132.8,21.6-184.3,51.7&#10;&#9;&#9;c5.6,11.1,17.1,18.8,30.4,18.8h32.3h100.6c68,0,123.5,54.8,123.8,122.8c0,0.5,0,0.9,0,1.4c0,28.8-5.1,56.4-14.4,82.1&#10;&#9;&#9;c127.9-5.5,221.2-25.6,221.2-79C1010.3,761.6,956.9,695.2,875.5,650.6z" style="fill: rgb(253, 213, 129);"/>
	<g>
		<path d="M 648.5 474.700012 H 675 V 486.000012 H 648.5 V 474.700012 Z" class="st14" style="fill: rgb(163, 69, 5);"/>
		<path d="M 724.200012 474.700012 H 750.700012 V 486.000012 H 724.200012 V 474.700012 Z" class="st14" style="fill: rgb(163, 69, 5);"/>
		<path class="st14" d="M656.6,461.8v24.5h9.9v-17.6c0-1.8,1.5-3.3,3.3-3.3h59.5c1.8,0,3.3,1.5,3.3,3.3v17.6h9.9v-24.5&#10;&#9;&#9;&#9;c0-4.4-3.6-8.1-8.1-8.1h-69.8C660.2,453.7,656.6,457.3,656.6,461.8z" style="fill: rgb(163, 69, 5);"/>
		<path class="st19" d="M668.8,465.4c0.3-0.1,0.7-0.2,1.1-0.2H729v-11.5h-60.3V465.4z" style="fill: rgb(127, 55, 6);"/>
		<path class="st8" d="M817.7,503.4v128.8c0,12.6-10.3,22.9-22.9,22.9H594.9c-12.6,0-22.9-10.3-22.9-22.9V503.4&#10;&#9;&#9;&#9;c0-12.6,10.3-22.9,22.9-22.9h199.8C807.4,480.4,817.7,490.8,817.7,503.4z" style="fill: rgb(203, 90, 0);"/>
		<g>
			
				<path d="M 602.099976 538.700012 H 696.899979 V 575.000011 H 602.099976 V 538.700012 Z" transform="matrix(0.9818 -0.1897 0.1897 0.9818 -93.8203 133.2812)" class="st14" style="fill: rgb(163, 69, 5);"/>
			<path d="M 755.899975 608.099976 A 31.299999 31.299999 0 0 1 724.599976 639.399975 A 31.299999 31.299999 0 0 1 693.299976 608.099976 A 31.299999 31.299999 0 0 1 724.599976 576.799976 A 31.299999 31.299999 0 0 1 755.899975 608.099976 Z" class="st14" style="fill: rgb(163, 69, 5);"/>
			<path class="st14" d="M788.4,570.4l-18.1-52.2c-0.5-1.6-2.4-2.2-3.8-1.3l-45.8,30.9c-1.7,1.2-1.4,3.8,0.6,4.4l63.9,21.3&#10;&#9;&#9;&#9;&#9;C787.2,574.3,789.1,572.4,788.4,570.4z" style="fill: rgb(163, 69, 5);"/>
		</g>
		<g>
			<g>
				<path class="st14" d="M616.7,480.4v27.8c0,8.6-7,15.6-15.6,15.6H572v-20.5c0-12.6,10.3-22.9,22.9-22.9H616.7z" style="fill: rgb(163, 69, 5);"/>
				<path class="st14" d="M616.7,627.5v27.6h-21.8c-12.6,0-22.9-10.3-22.9-22.9v-20.3h29.1C609.7,611.9,616.7,618.9,616.7,627.5z" style="fill: rgb(163, 69, 5);"/>
			</g>
			<g>
				<path class="st14" d="M817.7,503.4v20.5h-29.1c-8.6,0-15.6-7-15.6-15.6v-27.8h21.8C807.4,480.4,817.7,490.8,817.7,503.4z" style="fill: rgb(163, 69, 5);"/>
				<path class="st14" d="M817.7,611.9v20.3c0,12.6-10.3,22.9-22.9,22.9H773v-27.6c0-8.6,7-15.6,15.6-15.6H817.7z" style="fill: rgb(163, 69, 5);"/>
			</g>
		</g>
		<g>
			
				<path d="M 593.299988 534.099976 H 688.099991 V 570.399975 H 593.299988 V 534.099976 Z" transform="matrix(0.9818 -0.1897 0.1897 0.9818 -93.1171 131.5411)" class="st20" style="fill: rgb(255, 255, 255);"/>
			
				<path d="M 602.099976 542.400024 H 679.499977 V 563.000025 H 602.099976 V 542.400024 Z" transform="matrix(0.9818 -0.1897 0.1897 0.9818 -93.1934 131.5636)" class="st2" style="fill: rgb(255, 215, 0);"/>
		</g>
		<g>
			<path d="M 747.099987 603.5 A 31.299999 31.299999 0 0 1 715.799988 634.799999 A 31.299999 31.299999 0 0 1 684.499989 603.5 A 31.299999 31.299999 0 0 1 715.799988 572.200001 A 31.299999 31.299999 0 0 1 747.099987 603.5 Z" class="st20" style="fill: rgb(255, 255, 255);"/>
			<path d="M 735.999989 603.5 A 20.200001 20.200001 0 0 1 715.799988 623.700001 A 20.200001 20.200001 0 0 1 695.599987 603.5 A 20.200001 20.200001 0 0 1 715.799988 583.299999 A 20.200001 20.200001 0 0 1 735.999989 603.5 Z" class="st21" style="fill: rgb(0, 176, 213);"/>
		</g>
		<g>
			<path class="st20" d="M779.7,565.9l-18.1-52.2c-0.5-1.6-2.4-2.2-3.8-1.3L712,543.4c-1.7,1.2-1.4,3.8,0.6,4.4l63.9,21.3&#10;&#9;&#9;&#9;&#9;C778.5,569.7,780.3,567.8,779.7,565.9z" style="fill: rgb(255, 255, 255);"/>
			<path class="st17" d="M765.5,555.3l-9.6-27.6c-0.3-0.8-1.3-1.1-2-0.7l-24.2,16.4c-0.9,0.6-0.7,2,0.3,2.4l33.8,11.3&#10;&#9;&#9;&#9;&#9;C764.9,557.3,765.9,556.3,765.5,555.3z" style="fill: rgb(255, 92, 92);"/>
		</g>
		<path class="st14" d="M720.7,449.8h-43.6c-2.1,0-3.8,1.7-3.8,3.8V465c0,2.1,1.7,3.8,3.8,3.8h43.6c2.1,0,3.8-1.7,3.8-3.8v-11.4&#10;&#9;&#9;&#9;C724.5,451.5,722.8,449.8,720.7,449.8z" style="fill: rgb(163, 69, 5);"/>
	</g>
	<g>
		<path class="st20" d="M598.4,675.4c0,4.9-0.5,9.8-1.3,14.5c-4,21.9-17.1,40.7-35.2,52.3c-12.4,8-27.1,12.6-42.9,12.6&#10;&#9;&#9;&#9;c-21.6,0-41.2-8.6-55.5-22.6c-14.7-14.4-23.9-34.5-23.9-56.7c0-14.1,3.7-27.4,10.2-38.9c10.4-18.4,27.9-32.3,48.9-37.8&#10;&#9;&#9;&#9;c6.5-1.7,13.3-2.6,20.3-2.6c14.1,0,27.4,3.7,38.9,10.2h0C582,619.8,598.4,645.7,598.4,675.4z" style="fill: rgb(255, 255, 255);"/>
		<path class="st17" d="M561.9,742.2c-12.4,8-27.1,12.6-42.9,12.6c-21.6,0-41.2-8.6-55.5-22.6c6.9-79.2,52.8-105.5,52.8-105.5l3,0.1&#10;&#9;&#9;&#9;l9.7,0.3c-0.4,1.2-0.8,2.4-1.1,3.5C513.2,679.9,539.5,719.3,561.9,742.2z" style="fill: rgb(255, 92, 92);"/>
		<path class="st2" d="M598.4,675.4c0,4.9-0.5,9.8-1.3,14.5c-12.1-24.7-33.2-50.3-69.2-59.3c-3.1-0.8-6.2-1.4-9.5-1.9l0.9-1.9&#10;&#9;&#9;&#9;l4.6-9.5c0,0,12.1-7.8,34.1-11h0C582,619.8,598.4,645.7,598.4,675.4z" style="fill: rgb(255, 215, 0);"/>
		<path class="st22" d="M518.4,625.1l-11.1,6.2c0,0-25.3-7.7-57.5,5.2c10.4-18.4,27.9-32.3,48.9-37.8&#10;&#9;&#9;&#9;C503.4,607.8,509.8,616.7,518.4,625.1z" style="fill: rgb(76, 158, 252);"/>
		<path d="M 535.5 625.700012 A 16.5 14.3 0 0 1 519 640.000012 A 16.5 14.3 0 0 1 502.5 625.700012 A 16.5 14.3 0 0 1 519 611.400012 A 16.5 14.3 0 0 1 535.5 625.700012 Z" class="st20" style="fill: rgb(255, 255, 255);"/>
		<path class="st23" d="M519,630.5c-7.2,0-13.3-4-15.5-9.5c-0.6,1.5-0.9,3.1-0.9,4.8c0,7.9,7.4,14.3,16.5,14.3&#10;&#9;&#9;&#9;c9.1,0,16.5-6.4,16.5-14.3c0-1.7-0.3-3.3-0.9-4.8C532.3,626.5,526.2,630.5,519,630.5z" style="fill: rgb(232, 232, 232);"/>
		<path class="st24" d="M557.9,606.2L557.9,606.2c-5.3-3-10.9-5.3-16.8-7c13.8,14.3,22.4,33.8,22.4,55.2c0,4.9-0.5,9.8-1.3,14.5&#10;&#9;&#9;&#9;c-4,21.9-17.1,40.7-35.2,52.3c-12.4,8-27.1,12.6-42.9,12.6c-7.7,0-15.1-1.1-22.1-3.1c0.5,0.5,1,1,1.5,1.5&#10;&#9;&#9;&#9;c14.3,14,33.9,22.6,55.5,22.6c15.8,0,30.5-4.6,42.9-12.6c18.1-11.6,31.1-30.4,35.2-52.3c0.9-4.7,1.3-9.5,1.3-14.5&#10;&#9;&#9;&#9;C598.4,645.7,582,619.8,557.9,606.2z" style="opacity: 0.12; fill: rgb(38, 47, 58);"/>
	</g>
	<path class="st25" d="M155.2,499.5c0,0,17.5-48.6,58-8.1c0,0,6.7-58.7,47.2-25.3c0,0-47.2-1.3-41.2,50.3&#10;&#9;&#9;C219.3,516.3,190.6,462,155.2,499.5z" style="fill: rgb(33, 33, 35);"/>
	<path class="st25" d="M195.8,403.9c0,0,10.4-28.8,34.5-4.8c0,0,4-34.9,28-15c0,0-28-0.8-24.4,29.8&#10;&#9;&#9;C233.9,413.9,216.9,381.7,195.8,403.9z" style="fill: rgb(33, 33, 35);"/>
	<path class="st25" d="M271.6,523c0,0,13.8-38.3,45.8-6.4c0,0,5.3-46.3,37.2-20c0,0-37.2-1.1-32.5,39.6&#10;&#9;&#9;C322.2,536.3,299.6,493.4,271.6,523z" style="fill: rgb(33, 33, 35);"/>
	<path class="st25" d="M668.3,223.9c0,0,20.2-35.9,46.7,1.2c0,0,13-45.3,40.5-13.7c0,0-37-7.3-39,34.2&#10;&#9;&#9;C716.5,245.6,701.1,199.1,668.3,223.9z" style="fill: rgb(33, 33, 35);"/>
	<path class="st25" d="M754.5,172c0,0,15.6-27.8,36.2,1c0,0,10.1-35.1,31.3-10.6c0,0-28.6-5.6-30.2,26.4&#10;&#9;&#9;C791.8,188.8,779.9,152.8,754.5,172z" style="fill: rgb(33, 33, 35);"/>
	<path class="st25" d="M544.1,182c0,0,19.5-40.1,50.5-1.6c0,0,11.2-49.8,42.8-17.4c0,0-40.4-5.5-39.9,39.4&#10;&#9;&#9;C597.6,202.3,578,153.1,544.1,182z" style="fill: rgb(33, 33, 35);"/>
</g>
</svg>